{"glyphs":{"0":{"ha":1011,"x_min":0,"x_max":0,"o":"m 264 321 l 264 778 l 624 778 z m 749 194 l 396 194 l 749 647 z m 846 0 l 942 96 l 942 874 l 846 972 l 165 972 l 69 874 l 69 96 l 165 0 z "},"1":{"ha":485,"x_min":0,"x_max":0,"o":"m 415 0 l 415 972 l 28 972 l 28 778 l 222 778 l 222 0 z "},"2":{"ha":942,"x_min":0,"x_max":0,"o":"m 707 778 l 707 679 l 28 194 l 28 0 l 900 0 l 900 194 l 358 194 l 900 582 l 900 874 l 804 972 l 124 972 l 28 874 l 28 681 l 222 681 l 222 778 z "},"3":{"ha":983,"x_min":0,"x_max":0,"o":"m 818 0 l 914 96 l 914 486 l 818 583 l 669 583 l 914 696 l 914 972 l 42 972 l 42 681 l 236 681 l 236 778 l 721 778 l 332 582 l 332 388 l 721 388 l 721 194 l 236 194 l 236 290 l 42 290 l 42 96 l 138 0 z "},"4":{"ha":900,"x_min":0,"x_max":0,"o":"m 0 388 l 0 194 l 582 194 l 582 0 l 776 0 l 776 194 l 872 194 l 872 388 l 776 388 l 776 972 l 582 972 z m 582 388 l 243 388 l 582 724 z "},"5":{"ha":1011,"x_min":0,"x_max":0,"o":"m 846 0 l 942 96 l 942 535 l 846 631 l 264 631 l 264 778 l 900 778 l 900 972 l 69 972 l 69 435 l 360 435 l 749 435 l 749 194 l 264 194 l 264 290 l 69 290 l 69 96 l 165 0 z "},"6":{"ha":1011,"x_min":0,"x_max":0,"o":"m 942 485 l 846 582 l 264 582 l 264 778 l 749 778 l 749 681 l 942 681 l 942 874 l 846 972 l 165 972 l 69 874 l 69 96 l 165 0 l 846 0 l 942 96 z m 749 388 l 749 194 l 264 194 l 264 388 z "},"7":{"ha":900,"x_min":0,"x_max":0,"o":"m 429 0 l 872 778 l 872 972 l 0 972 l 0 778 l 643 778 l 194 0 z "},"8":{"ha":1011,"x_min":0,"x_max":0,"o":"m 264 194 l 264 388 l 749 388 l 749 194 z m 264 582 l 264 778 l 749 778 l 749 582 z m 846 0 l 942 96 l 942 388 l 846 485 l 942 582 l 942 874 l 846 972 l 165 972 l 69 874 l 69 582 l 165 485 l 69 388 l 69 96 l 165 0 z "},"9":{"ha":1011,"x_min":0,"x_max":0,"o":"m 69 485 l 165 388 l 749 388 l 749 194 l 264 194 l 264 290 l 69 290 l 69 96 l 165 0 l 846 0 l 942 96 l 942 874 l 846 972 l 165 972 l 69 874 z m 264 582 l 264 778 l 749 778 l 749 582 z "},"Б":{"ha":997,"x_min":0,"x_max":0,"o":"m 264 194 l 264 388 l 749 388 l 749 194 z m 846 0 l 942 96 l 942 485 l 846 582 l 264 582 l 264 778 l 894 778 l 894 972 l 69 972 l 69 0 z "},"В":{"ha":1011,"x_min":0,"x_max":0,"o":"m 264 194 l 264 388 l 749 388 l 749 194 z m 264 582 l 264 778 l 749 778 l 749 582 z m 846 0 l 942 96 l 942 388 l 846 485 l 942 582 l 942 874 l 846 972 l 69 972 l 69 0 z "},"Г":{"ha":922,"x_min":0,"x_max":0,"o":"m 264 0 l 264 778 l 894 778 l 894 972 l 69 972 l 69 0 z "},"Д":{"ha":1013,"x_min":0,"x_max":0,"o":"m 304 194 l 304 583 l 499 778 l 693 778 l 693 194 z m 208 -194 l 208 0 l 790 0 l 790 -194 l 985 -194 l 985 194 l 886 194 l 886 972 l 401 972 l 110 681 l 110 194 l 14 194 l 14 -194 z "},"Е":{"ha":950,"x_min":0,"x_max":0,"o":"m 894 0 l 894 194 l 264 194 l 264 388 l 846 388 l 846 582 l 264 582 l 264 778 l 894 778 l 894 972 l 69 972 l 69 0 z "},"Ж":{"ha":1275,"x_min":0,"x_max":0,"o":"m 250 0 l 250 194 l 443 388 l 540 388 l 540 0 l 735 0 l 735 388 l 832 388 l 1026 194 l 1026 0 l 1219 0 l 1219 290 l 1026 485 l 1219 679 l 1219 972 l 1026 972 l 1026 776 l 832 582 l 735 582 l 735 972 l 540 972 l 540 582 l 443 582 l 250 776 l 250 972 l 56 972 l 56 679 l 250 485 l 56 290 l 56 0 z "},"З":{"ha":983,"x_min":0,"x_max":0,"o":"m 818 0 l 914 96 l 914 388 l 818 485 l 914 582 l 914 874 l 818 972 l 138 972 l 42 874 l 42 681 l 236 681 l 236 778 l 721 778 l 721 582 l 429 582 l 429 388 l 721 388 l 721 194 l 236 194 l 236 290 l 42 290 l 42 96 l 138 0 z "},"К":{"ha":997,"x_min":0,"x_max":0,"o":"m 264 0 l 264 388 l 554 388 l 749 194 l 749 0 l 942 0 l 942 290 l 749 485 l 942 679 l 942 972 l 749 972 l 749 776 l 554 582 l 264 582 l 264 972 l 69 972 l 69 0 z "},"Л":{"ha":997,"x_min":0,"x_max":0,"o":"m 250 0 l 250 583 l 443 778 l 735 778 l 735 0 l 928 0 l 928 972 l 346 972 l 56 681 l 56 0 z "},"Н":{"ha":1011,"x_min":0,"x_max":0,"o":"m 264 0 l 264 388 l 749 388 l 749 0 l 942 0 l 942 972 l 749 972 l 749 582 l 264 582 l 264 972 l 69 972 l 69 0 z "},"О":{"ha":1011,"x_min":0,"x_max":0,"o":"m 264 194 l 264 778 l 749 778 l 749 194 z m 846 0 l 942 96 l 942 874 l 846 972 l 165 972 l 69 874 l 69 96 l 165 0 z "},"П":{"ha":1011,"x_min":0,"x_max":0,"o":"m 264 0 l 264 778 l 749 778 l 749 0 l 942 0 l 942 972 l 69 972 l 69 0 z "},"Р":{"ha":997,"x_min":0,"x_max":0,"o":"m 264 485 l 264 778 l 749 778 l 749 485 z m 264 0 l 264 290 l 846 290 l 942 388 l 942 874 l 846 972 l 69 972 l 69 0 z "},"С":{"ha":997,"x_min":0,"x_max":0,"o":"m 846 0 l 942 96 l 942 290 l 749 290 l 749 194 l 264 194 l 264 778 l 749 778 l 749 681 l 942 681 l 942 874 l 846 972 l 165 972 l 69 874 l 69 96 l 165 0 z "},"Т":{"ha":928,"x_min":0,"x_max":0,"o":"m 563 0 l 563 778 l 900 778 l 900 972 l 28 972 l 28 778 l 368 778 l 368 0 z "},"Х":{"ha":983,"x_min":0,"x_max":0,"o":"m 250 0 l 250 194 l 443 388 l 540 388 l 735 194 l 735 0 l 928 0 l 928 290 l 735 485 l 928 679 l 928 972 l 735 972 l 735 776 l 540 582 l 443 582 l 250 776 l 250 972 l 56 972 l 56 679 l 250 485 l 56 290 l 56 0 z "},"Ц":{"ha":1082,"x_min":0,"x_max":0,"o":"m 1040 -194 l 1040 194 l 942 194 l 942 972 l 749 972 l 749 194 l 264 194 l 264 972 l 69 972 l 69 0 l 846 0 l 846 -194 z "},"Ч":{"ha":951,"x_min":0,"x_max":0,"o":"m 882 0 l 882 972 l 688 972 l 688 582 l 250 582 l 250 972 l 56 972 l 56 485 l 151 388 l 688 388 l 688 0 z "},"Ш":{"ha":1303,"x_min":0,"x_max":0,"o":"m 1233 0 l 1233 972 l 1040 972 l 1040 194 l 749 194 l 749 972 l 554 972 l 554 194 l 264 194 l 264 972 l 69 972 l 69 0 z "},"Щ":{"ha":1372,"x_min":0,"x_max":0,"o":"m 1331 -194 l 1331 194 l 1233 194 l 1233 972 l 1040 972 l 1040 194 l 749 194 l 749 972 l 554 972 l 554 194 l 264 194 l 264 972 l 69 972 l 69 0 l 1136 0 l 1136 -194 z "},"Ъ":{"ha":1150,"x_min":0,"x_max":0,"o":"m 415 194 l 415 485 l 900 485 l 900 194 z m 999 0 l 1094 96 l 1094 582 l 999 679 l 415 679 l 415 972 l 28 972 l 28 778 l 222 778 l 222 0 z "},"Ы":{"ha":1303,"x_min":0,"x_max":0,"o":"m 264 194 l 264 485 l 749 485 l 749 194 z m 846 0 l 942 96 l 942 582 l 846 679 l 264 679 l 264 972 l 69 972 l 69 0 z m 1233 0 l 1233 972 l 1040 972 l 1040 0 z "},"Ь":{"ha":997,"x_min":0,"x_max":0,"o":"m 264 194 l 264 485 l 749 485 l 749 194 z m 846 0 l 942 96 l 942 582 l 846 679 l 264 679 l 264 972 l 69 972 l 69 0 z "},"Э":{"ha":997,"x_min":0,"x_max":0,"o":"m 832 0 l 928 96 l 928 874 l 832 972 l 151 972 l 56 874 l 56 681 l 250 681 l 250 778 l 735 778 l 735 582 l 346 582 l 346 388 l 735 388 l 735 194 l 250 194 l 250 290 l 56 290 l 56 96 l 151 0 z "},"Ю":{"ha":1303,"x_min":0,"x_max":0,"o":"m 651 194 l 651 778 l 1040 778 l 1040 194 z m 264 0 l 264 388 l 457 388 l 457 96 l 554 0 l 1136 0 l 1233 96 l 1233 874 l 1136 972 l 554 972 l 457 874 l 457 582 l 264 582 l 264 972 l 69 972 l 69 0 z "},"Я":{"ha":1011,"x_min":0,"x_max":0,"o":"m 264 485 l 264 778 l 749 778 l 749 485 z m 264 0 l 264 96 l 457 290 l 749 290 l 749 0 l 942 0 l 942 972 l 165 972 l 69 874 l 69 388 l 165 290 l 69 194 l 69 0 z "},"И":{"ha":1011,"x_min":0,"x_max":0,"o":"m 264 0 l 749 649 l 749 0 l 942 0 l 942 972 l 749 972 l 264 325 l 264 972 l 69 972 l 69 0 z "},"М":{"ha":1204,"x_min":0,"x_max":0,"o":"m 264 0 l 264 656 l 524 282 l 686 282 l 940 656 l 940 0 l 1135 0 l 1135 972 l 947 972 l 603 501 l 264 972 l 69 972 l 69 0 z "},"Й":{"ha":1011,"x_min":0,"x_max":0,"o":"m 165 1165 l 264 1068 l 749 1068 l 846 1165 l 846 1360 l 651 1360 l 651 1233 l 360 1233 l 360 1360 l 165 1360 z m 264 0 l 749 649 l 749 0 l 942 0 l 942 972 l 749 972 l 264 325 l 264 972 l 69 972 l 69 0 z "},"Ё":{"ha":950,"x_min":0,"x_max":0,"o":"m 894 0 l 894 194 l 264 194 l 264 388 l 846 388 l 846 582 l 264 582 l 264 778 l 894 778 l 894 972 l 69 972 l 69 0 z m 215 1068 l 410 1068 l 410 1263 l 215 1263 z m 554 1068 l 749 1068 l 749 1263 l 554 1263 z "},"У":{"ha":956,"x_min":0,"x_max":0,"o":"m 124 0 l 610 0 l 900 290 l 900 972 l 707 972 l 707 582 l 415 582 l 222 776 l 222 972 l 28 972 l 28 679 l 318 388 l 707 388 l 513 194 l 124 194 z "},"!":{"ha":333,"x_min":0,"x_max":0,"o":"m 264 290 l 264 972 l 69 972 l 69 290 z m 69 0 l 264 0 l 264 194 l 69 194 z "},".":{"ha":306,"x_min":0,"x_max":0,"o":"m 56 0 l 250 0 l 250 194 l 56 194 z "}," ":{"ha":556,"x_min":0,"x_max":0,"o":""},"-":{"ha":443,"x_min":0,"x_max":0,"o":"m 28 388 l 415 388 l 415 582 l 28 582 z "},"—":{"ha":1121,"x_min":0,"x_max":0,"o":"m 28 388 l 1093 388 l 1093 582 l 28 582 z "},",":{"ha":306,"x_min":0,"x_max":0,"o":"m 56 -194 l 250 0 l 250 194 l 56 194 z "},"F":{"ha":922,"x_min":0,"x_max":0,"o":"m 264 0 l 264 388 l 846 388 l 846 582 l 264 582 l 264 778 l 894 778 l 894 972 l 69 972 l 69 0 z "},"U":{"ha":1011,"x_min":0,"x_max":0,"o":"m 69 972 l 69 96 l 165 0 l 846 0 l 942 96 l 942 972 l 749 972 l 749 194 l 264 194 l 264 972 z "},"E":{"ha":950,"x_min":0,"x_max":0,"o":"m 894 0 l 894 194 l 264 194 l 264 388 l 846 388 l 846 582 l 264 582 l 264 778 l 894 778 l 894 972 l 69 972 l 69 0 z "},"R":{"ha":1011,"x_min":0,"x_max":0,"o":"m 264 485 l 264 778 l 749 778 l 749 485 z m 942 0 l 942 194 l 846 290 l 942 388 l 942 874 l 846 972 l 69 972 l 69 0 l 264 0 l 264 290 l 554 290 l 651 194 l 749 96 l 749 0 z "},"O":{"ha":1011,"x_min":0,"x_max":0,"o":"m 264 194 l 264 778 l 749 778 l 749 194 z m 846 0 l 942 96 l 942 874 l 846 972 l 165 972 l 69 874 l 69 96 l 165 0 z "},"A":{"ha":997,"x_min":0,"x_max":0,"o":"m 250 485 l 250 582 l 443 778 l 735 778 l 735 485 z m 250 0 l 250 290 l 735 290 l 735 0 l 928 0 l 928 972 l 346 972 l 56 679 l 56 0 z "},"B":{"ha":1011,"x_min":0,"x_max":0,"o":"m 264 194 l 264 388 l 749 388 l 749 194 z m 264 582 l 264 778 l 749 778 l 749 582 z m 846 0 l 942 96 l 942 388 l 846 485 l 942 582 l 942 874 l 846 972 l 69 972 l 69 0 z "},"C":{"ha":997,"x_min":0,"x_max":0,"o":"m 846 0 l 942 96 l 942 290 l 749 290 l 749 194 l 264 194 l 264 778 l 749 778 l 749 681 l 942 681 l 942 874 l 846 972 l 165 972 l 69 874 l 69 96 l 165 0 z "},"H":{"ha":1011,"x_min":0,"x_max":0,"o":"m 264 0 l 264 388 l 749 388 l 749 0 l 942 0 l 942 972 l 749 972 l 749 582 l 264 582 l 264 972 l 69 972 l 69 0 z "},"X":{"ha":983,"x_min":0,"x_max":0,"o":"m 250 0 l 250 194 l 443 388 l 540 388 l 735 194 l 735 0 l 928 0 l 928 290 l 735 485 l 928 679 l 928 972 l 735 972 l 735 776 l 540 582 l 443 582 l 250 776 l 250 972 l 56 972 l 56 679 l 250 485 l 56 290 l 56 0 z "},"K":{"ha":997,"x_min":0,"x_max":0,"o":"m 264 0 l 264 388 l 554 388 l 749 194 l 749 0 l 942 0 l 942 290 l 749 485 l 942 679 l 942 972 l 749 972 l 749 776 l 554 582 l 264 582 l 264 972 l 69 972 l 69 0 z "},"M":{"ha":1204,"x_min":0,"x_max":0,"o":"m 264 0 l 264 656 l 524 282 l 686 282 l 940 656 l 940 0 l 1135 0 l 1135 972 l 947 972 l 603 501 l 264 972 l 69 972 l 69 0 z "},"N":{"ha":1011,"x_min":0,"x_max":0,"o":"m 942 0 l 942 972 l 749 972 l 749 325 l 264 972 l 69 972 l 69 0 l 264 0 l 264 649 l 749 0 z "},"T":{"ha":928,"x_min":0,"x_max":0,"o":"m 563 0 l 563 778 l 900 778 l 900 972 l 28 972 l 28 778 l 368 778 l 368 0 z "},"P":{"ha":997,"x_min":0,"x_max":0,"o":"m 264 485 l 264 778 l 749 778 l 749 485 z m 264 0 l 264 290 l 846 290 l 942 388 l 942 874 l 846 972 l 69 972 l 69 0 z "},"Z":{"ha":956,"x_min":0,"x_max":0,"o":"m 914 972 l 42 972 l 42 778 l 624 778 l 42 194 l 42 0 l 914 0 l 914 194 l 332 194 l 914 778 z "},"I":{"ha":333,"x_min":0,"x_max":0,"o":"m 264 0 l 264 972 l 69 972 l 69 0 z "},"L":{"ha":922,"x_min":0,"x_max":0,"o":"m 69 972 l 69 0 l 894 0 l 894 194 l 264 194 l 264 972 z "},"D":{"ha":997,"x_min":0,"x_max":0,"o":"m 942 681 l 651 972 l 69 972 l 69 0 l 846 0 l 942 96 z m 749 194 l 264 194 l 264 778 l 554 778 l 749 583 z "},"J":{"ha":969,"x_min":0,"x_max":0,"o":"m 513 194 l 415 194 l 222 388 l 222 485 l 28 485 l 28 290 l 318 0 l 610 0 l 900 290 l 900 972 l 415 972 l 415 778 l 707 778 l 707 388 z "},"Қ":{"ha":1040,"x_min":0,"x_max":0,"o":"m 264 0 l 264 388 l 554 388 l 749 194 l 749 0 l 846 0 l 846 -194 l 1040 -194 l 1040 194 l 942 194 l 942 290 l 749 485 l 942 679 l 942 972 l 749 972 l 749 776 l 554 582 l 264 582 l 264 972 l 69 972 l 69 0 z "},"Ң":{"ha":1040,"x_min":0,"x_max":0,"o":"m 264 0 l 264 388 l 749 388 l 749 0 l 846 0 l 846 -194 l 1040 -194 l 1040 194 l 942 194 l 942 972 l 749 972 l 749 582 l 264 582 l 264 972 l 69 972 l 69 0 z "},"Һ":{"ha":997,"x_min":0,"x_max":0,"o":"m 69 972 l 69 0 l 264 0 l 264 483 l 749 483 l 749 0 l 942 0 l 942 581 l 846 678 l 264 678 l 264 972 z "},"Ә":{"ha":1011,"x_min":0,"x_max":0,"o":"m 69 96 l 165 0 l 846 0 l 942 96 l 942 874 l 846 972 l 165 972 l 69 874 l 69 681 l 264 681 l 264 778 l 749 778 l 749 582 l 69 582 z m 749 388 l 749 194 l 264 194 l 264 388 z "},"?":{"ha":969,"x_min":0,"x_max":0,"o":"m 804 388 l 900 485 l 900 874 l 804 972 l 124 972 l 28 874 l 28 681 l 222 681 l 222 778 l 707 778 l 707 582 l 414 582 l 317 485 l 317 290 l 511 290 l 511 388 z m 318 0 l 513 0 l 513 194 l 318 194 z "},"№":{"ha":1386,"x_min":0,"x_max":0,"o":"m 846 0 l 846 972 l 651 972 l 651 340 l 264 972 l 69 972 l 69 0 l 264 0 l 264 633 l 651 0 z m 896 293 l 1331 293 l 1331 432 l 896 432 z m 896 488 l 1331 488 l 1331 972 l 896 972 z m 1039 826 l 1188 826 l 1188 635 l 1039 635 z "},"#":{"ha":983,"x_min":0,"x_max":0,"o":"m 589 194 l 590 0 l 783 0 l 783 194 l 928 194 l 928 388 l 783 388 l 783 582 l 928 582 l 928 776 l 783 776 l 783 972 l 590 972 l 590 776 l 396 776 l 396 972 l 201 972 l 201 776 l 56 776 l 56 581 l 201 581 l 201 388 l 56 388 l 56 196 l 201 196 l 201 0 l 396 0 l 396 194 z m 396 388 l 396 582 l 589 582 l 589 388 z "},"+":{"ha":832,"x_min":0,"x_max":0,"o":"m 318 582 l 28 582 l 28 388 l 318 388 l 318 96 l 513 96 l 513 388 l 804 388 l 804 582 l 513 582 l 513 874 l 318 874 z "},"Y":{"ha":956,"x_min":0,"x_max":0,"o":"m 575 0 l 575 367 l 914 610 l 914 972 l 721 972 l 721 692 l 476 528 l 236 692 l 236 972 l 42 972 l 42 610 l 382 367 l 382 0 z "},"Ү":{"ha":956,"x_min":0,"x_max":0,"o":"m 575 0 l 575 367 l 914 610 l 914 972 l 721 972 l 721 692 l 476 528 l 236 692 l 236 972 l 42 972 l 42 610 l 382 367 l 382 0 z "},"Ұ":{"ha":956,"x_min":0,"x_max":0,"o":"m 818 194 l 818 388 l 604 388 l 914 610 l 914 972 l 721 972 l 721 692 l 476 528 l 236 692 l 236 972 l 42 972 l 42 610 l 351 388 l 138 388 l 138 194 l 382 194 l 382 0 l 575 0 l 575 194 z "},"Ө":{"ha":1057,"x_min":0,"x_max":0,"o":"m 892 0 l 988 96 l 988 874 l 892 972 l 165 972 l 69 874 l 69 96 l 165 0 z m 264 778 l 793 778 l 793 563 l 264 563 z m 793 194 l 264 194 l 264 413 l 793 413 z "},"А":{"ha":997,"x_min":0,"x_max":0,"o":"m 250 485 l 250 582 l 443 778 l 735 778 l 735 485 z m 250 0 l 250 290 l 735 290 l 735 0 l 928 0 l 928 972 l 346 972 l 56 679 l 56 0 z "},"/":{"ha":776,"x_min":0,"x_max":0,"o":"m 235 0 l 776 972 l 546 972 l 0 0 z "},"(":{"ha":499,"x_min":0,"x_max":0,"o":"m 457 -97 l 457 94 l 264 94 l 264 875 l 457 875 l 457 1069 l 165 1069 l 69 974 l 69 -1 l 168 -97 z "},")":{"ha":499,"x_min":0,"x_max":0,"o":"m 331 -97 l 429 -1 l 429 974 l 332 1069 l 42 1069 l 42 875 l 236 875 l 236 94 l 42 94 l 42 -97 z "},":":{"ha":306,"x_min":0,"x_max":0,"o":"m 56 0 l 250 0 l 250 194 l 56 194 z m 56 388 l 250 388 l 250 582 l 56 582 z "},";":{"ha":306,"x_min":0,"x_max":0,"o":"m 56 388 l 250 388 l 250 582 l 56 582 z m 56 -194 l 250 0 l 250 194 l 56 194 z "},"=":{"ha":888,"x_min":0,"x_max":0,"o":"m 56 438 l 56 243 l 832 243 l 832 438 z m 56 729 l 56 536 l 832 536 l 832 729 z "},"\\":{"ha":776,"x_min":0,"x_max":0,"o":"m 776 0 l 231 972 l 0 972 l 542 0 z "},"\"":{"ha":596,"x_min":0,"x_max":0,"o":"m 250 582 l 250 972 l 56 972 l 56 582 z m 540 582 l 540 972 l 346 972 l 346 582 z "},"'":{"ha":306,"x_min":0,"x_max":0,"o":"m 250 582 l 250 972 l 56 972 l 56 582 z "},"[":{"ha":499,"x_min":0,"x_max":0,"o":"m 457 -96 l 457 96 l 264 96 l 264 874 l 457 874 l 457 1068 l 69 1068 l 69 -96 z "},"]":{"ha":499,"x_min":0,"x_max":0,"o":"m 429 -96 l 429 1068 l 42 1068 l 42 874 l 236 874 l 236 96 l 42 96 l 42 -96 z "},"Q":{"ha":1025,"x_min":0,"x_max":0,"o":"m 815 197 l 942 290 l 942 874 l 846 972 l 165 972 l 69 874 l 69 96 l 165 0 l 554 0 l 674 90 l 749 0 l 983 0 z m 540 247 l 457 194 l 264 194 l 264 778 l 749 778 l 749 388 l 686 347 l 651 388 l 421 388 z "},"S":{"ha":1011,"x_min":0,"x_max":0,"o":"m 846 0 l 942 96 l 942 486 l 846 583 l 264 583 l 264 778 l 749 778 l 749 681 l 942 681 l 942 874 l 846 972 l 165 972 l 69 874 l 69 457 l 165 388 l 749 388 l 749 194 l 264 194 l 264 290 l 69 290 l 69 96 l 165 0 z "},"V":{"ha":983,"x_min":0,"x_max":0,"o":"m 540 194 l 443 194 l 250 388 l 250 972 l 56 972 l 56 290 l 346 0 l 638 0 l 928 290 l 928 972 l 735 972 l 735 388 z "},"W":{"ha":1275,"x_min":0,"x_max":0,"o":"m 785 0 l 979 0 l 1219 290 l 1219 972 l 1026 972 l 1026 388 l 882 194 l 735 388 l 735 972 l 540 972 l 540 388 l 397 194 l 250 388 l 250 972 l 56 972 l 56 290 l 299 0 l 493 0 l 638 174 z "},"G":{"ha":1011,"x_min":0,"x_max":0,"o":"m 846 0 l 942 96 l 942 557 l 504 557 l 504 363 l 749 363 l 749 194 l 264 194 l 264 778 l 749 778 l 749 681 l 942 681 l 942 874 l 846 972 l 165 972 l 69 874 l 69 96 l 165 0 z "},"¶":{"ha":763,"x_min":0,"x_max":0,"o":"m 443 0 l 443 826 l 489 826 l 489 0 l 638 0 l 638 826 l 735 826 l 735 972 l 151 972 l 56 874 l 56 485 l 151 388 l 297 388 l 297 0 z "},"€":{"ha":1068,"x_min":0,"x_max":0,"o":"m 721 290 l 721 432 l 332 432 l 332 529 l 721 529 l 721 679 l 332 679 l 332 778 l 818 778 l 818 681 l 1013 681 l 1013 874 l 914 972 l 236 972 l 138 874 l 138 679 l 42 679 l 42 529 l 138 529 l 138 432 l 42 432 l 42 290 l 138 290 l 138 96 l 236 0 l 914 0 l 1013 96 l 1013 290 l 818 290 l 818 194 l 332 194 l 332 290 z "},"$":{"ha":1011,"x_min":0,"x_max":0,"o":"m 407 778 l 407 582 l 264 582 l 264 778 z m 597 388 l 749 388 l 749 194 l 597 194 z m 407 194 l 264 194 l 264 290 l 69 290 l 69 96 l 165 0 l 407 0 l 407 -96 l 597 -96 l 597 0 l 846 0 l 942 96 l 942 486 l 846 582 l 597 582 l 597 778 l 749 778 l 749 681 l 942 681 l 942 874 l 846 972 l 597 972 l 597 1068 l 407 1068 l 407 972 l 165 972 l 69 874 l 69 457 l 165 388 l 407 388 z "},"@":{"ha":1011,"x_min":0,"x_max":0,"o":"m 217 147 l 217 828 l 799 828 l 799 388 l 725 388 l 725 732 l 290 732 l 290 244 l 942 244 l 942 874 l 846 972 l 165 972 l 69 874 l 69 96 l 165 0 l 942 0 l 942 147 z m 433 585 l 582 585 l 582 393 l 433 393 z "},"%":{"ha":1056,"x_min":0,"x_max":0,"o":"m 275 0 l 1013 972 l 785 972 l 42 0 z m 626 0 l 1014 0 l 1014 386 l 626 386 z m 772 242 l 869 242 l 869 146 l 772 146 z m 42 583 l 428 583 l 428 971 l 42 971 z m 188 826 l 283 826 l 283 729 l 188 729 z "},"’":{"ha":306,"x_min":0,"x_max":0,"o":"m 56 582 l 250 776 l 250 972 l 56 972 z "},"‘":{"ha":306,"x_min":0,"x_max":0,"o":"m 250 971 l 56 776 l 56 582 l 250 582 z "},"“":{"ha":596,"x_min":0,"x_max":0,"o":"m 250 971 l 56 776 l 56 582 l 250 582 z m 540 971 l 346 776 l 346 582 l 540 582 z "},"”":{"ha":596,"x_min":0,"x_max":0,"o":"m 346 582 l 540 776 l 540 972 l 346 972 z m 56 582 l 250 776 l 250 972 l 56 972 z "},"–":{"ha":928,"x_min":0,"x_max":0,"o":"m 28 388 l 900 388 l 900 582 l 28 582 z "},"|":{"ha":333,"x_min":0,"x_max":0,"o":"m 264 -97 l 264 1069 l 69 1069 l 69 -97 z "},"ғ":{"ha":981,"x_min":0,"x_max":0,"o":"m 314 0 l 314 388 l 707 388 l 707 582 l 314 582 l 314 778 l 953 778 l 953 972 l 119 972 l 119 582 l 28 582 l 28 388 l 119 388 l 119 0 z "},"ө":{"ha":1057,"x_min":0,"x_max":0,"o":"m 892 0 l 988 96 l 988 874 l 892 972 l 165 972 l 69 874 l 69 96 l 165 0 z m 264 778 l 793 778 l 793 563 l 264 563 z m 793 194 l 264 194 l 264 413 l 793 413 z "},"ұ":{"ha":956,"x_min":0,"x_max":0,"o":"m 818 194 l 818 388 l 604 388 l 914 610 l 914 972 l 721 972 l 721 692 l 476 528 l 236 692 l 236 972 l 42 972 l 42 610 l 351 388 l 138 388 l 138 194 l 382 194 l 382 0 l 575 0 l 575 194 z "},"ү":{"ha":956,"x_min":0,"x_max":0,"o":"m 575 0 l 575 367 l 914 610 l 914 972 l 721 972 l 721 692 l 476 528 l 236 692 l 236 972 l 42 972 l 42 610 l 382 367 l 382 0 z "},"…":{"ha":790,"x_min":0,"x_max":0,"o":"m 56 0 l 250 0 l 250 194 l 56 194 z m 297 0 l 492 0 l 492 194 l 297 194 z m 540 0 l 735 0 l 735 194 l 540 194 z "},"&":{"ha":964,"x_min":0,"x_max":0,"o":"m 236 194 l 236 363 l 318 407 l 501 218 l 478 194 z m 369 604 l 332 649 l 332 778 l 526 778 l 526 679 z m 526 0 l 624 96 l 721 0 l 964 0 l 744 218 l 964 436 l 721 436 l 624 340 l 478 485 l 721 607 l 721 874 l 624 972 l 236 972 l 138 874 l 138 615 l 211 535 l 138 535 l 42 436 l 42 96 l 138 0 z "},">":{"ha":846,"x_min":0,"x_max":0,"o":"m 846 485 l 69 971 l 69 728 l 457 485 l 69 242 l 69 0 z "},"<":{"ha":846,"x_min":0,"x_max":0,"o":"m 776 0 l 776 242 l 388 485 l 776 728 l 776 971 l 0 485 z "},"»":{"ha":1040,"x_min":0,"x_max":0,"o":"m 604 486 l 69 872 l 69 631 l 264 485 l 69 340 l 69 96 z m 1040 486 l 506 872 l 506 631 l 700 485 l 506 340 l 506 96 z "},"›":{"ha":604,"x_min":0,"x_max":0,"o":"m 604 486 l 69 872 l 69 631 l 264 485 l 69 340 l 69 96 z "},"«":{"ha":1040,"x_min":0,"x_max":0,"o":"m 971 96 l 971 340 l 776 485 l 971 631 l 971 872 l 436 486 z m 535 96 l 535 340 l 340 485 l 535 631 l 535 872 l 0 486 z "},"‹":{"ha":604,"x_min":0,"x_max":0,"o":"m 535 96 l 535 340 l 340 485 l 535 631 l 535 872 l 0 486 z "},"„":{"ha":596,"x_min":0,"x_max":0,"o":"m 346 -194 l 540 0 l 540 194 l 346 194 z m 56 -194 l 250 0 l 250 194 l 56 194 z "},"}":{"ha":554,"x_min":0,"x_max":0,"o":"m 331 -97 l 429 -1 l 429 388 l 526 485 l 429 582 l 429 974 l 332 1069 l 42 1069 l 42 875 l 236 875 l 236 582 l 332 485 l 236 388 l 236 94 l 42 94 l 42 -97 z "},"{":{"ha":554,"x_min":0,"x_max":0,"o":"m 513 -97 l 513 94 l 318 94 l 318 388 l 222 485 l 318 582 l 318 875 l 513 875 l 513 1069 l 222 1069 l 124 974 l 124 582 l 28 485 l 124 388 l 124 -1 l 224 -97 z "},"_":{"ha":556,"x_min":0,"x_max":0,"o":"m 0 -193 l 556 -193 l 556 0 l 0 0 z "},"^":{"ha":776,"x_min":0,"x_max":0,"o":"m 386 972 l 0 436 l 242 436 l 388 632 l 535 436 l 776 436 z "},"*":{"ha":775,"x_min":0,"x_max":0,"o":"m 388 486 l 524 286 l 656 376 l 538 551 l 747 551 l 747 713 l 538 713 l 651 883 l 521 972 l 389 772 l 253 972 l 119 882 l 235 713 l 28 713 l 28 551 l 242 551 l 122 374 l 254 286 z "},"`":{"ha":526,"x_min":0,"x_max":0,"o":"m 69 872 l 457 679 l 457 872 l 69 1067 z "},"~":{"ha":832,"x_min":0,"x_max":0,"o":"m 28 313 l 269 458 l 563 313 l 804 458 l 804 679 l 564 535 l 269 679 l 28 535 z "},"©":{"ha":1011,"x_min":0,"x_max":0,"o":"m 215 146 l 215 826 l 797 826 l 797 146 z m 846 0 l 942 96 l 942 874 l 846 972 l 165 972 l 69 874 l 69 96 l 165 0 z m 651 194 l 749 290 l 749 388 l 604 388 l 604 340 l 410 340 l 410 632 l 604 632 l 604 583 l 749 583 l 749 681 l 651 778 l 360 778 l 264 681 l 264 290 l 360 194 z "},"®":{"ha":811,"x_min":0,"x_max":0,"o":"m 42 485 l 138 388 l 672 388 l 769 485 l 769 972 l 672 1068 l 138 1068 l 42 972 z m 138 924 l 188 972 l 624 972 l 672 924 l 672 535 l 624 485 l 188 485 l 138 535 z m 283 753 l 283 826 l 526 826 l 526 753 z m 624 535 l 624 631 l 576 679 l 624 728 l 624 874 l 526 924 l 188 924 l 188 535 l 283 535 l 283 679 l 429 679 l 526 582 l 526 535 z "},"™":{"ha":1072,"x_min":0,"x_max":0,"o":"m 582 485 l 582 814 l 713 626 l 793 626 l 919 814 l 919 485 l 1017 485 l 1017 972 l 924 972 l 751 735 l 582 972 l 485 972 l 485 485 z m 267 485 l 267 874 l 436 874 l 436 972 l 0 972 l 0 874 l 169 874 l 169 485 z "},"₸":{"ha":956,"x_min":0,"x_max":0,"o":"m 576 0 l 576 535 l 914 535 l 914 728 l 42 728 l 42 535 l 382 535 l 382 0 z m 42 778 l 914 778 l 914 972 l 42 972 z "},"ё":{"ha":950,"x_min":0,"x_max":0,"o":"m 215 1068 l 410 1068 l 410 1263 l 215 1263 z m 554 1068 l 749 1068 l 749 1263 l 554 1263 z m 894 0 l 894 194 l 264 194 l 264 388 l 846 388 l 846 582 l 264 582 l 264 778 l 894 778 l 894 972 l 69 972 l 69 0 z "},"Ф":{"ha":1275,"x_min":0,"x_max":0,"o":"m 151 972 l 56 874 l 56 240 l 151 144 l 540 144 l 540 0 l 735 0 l 735 144 l 1122 144 l 1219 240 l 1219 874 l 1122 972 l 735 972 l 735 1118 l 540 1118 l 540 972 z m 250 339 l 250 778 l 540 778 l 540 339 z m 735 339 l 735 778 l 1026 778 l 1026 339 z "},"§":{"ha":832,"x_min":0,"x_max":0,"o":"m 165 1069 l 69 974 l 69 665 l 165 568 l 69 471 l 69 306 l 165 208 l 569 208 l 569 97 l 264 97 l 264 160 l 69 160 l 69 -1 l 165 -97 l 667 -97 l 763 -1 l 763 307 l 667 404 l 763 501 l 763 667 l 667 764 l 263 764 l 263 875 l 568 875 l 568 813 l 763 813 l 763 974 l 667 1069 z m 264 568 l 568 568 l 568 404 l 264 404 z "},"є":{"ha":997,"x_min":0,"x_max":0,"o":"m 846 0 l 942 96 l 942 290 l 747 290 l 747 194 l 263 194 l 263 388 l 651 388 l 651 582 l 263 582 l 263 778 l 747 778 l 747 681 l 942 681 l 942 874 l 846 972 l 165 972 l 69 874 l 69 96 l 165 0 z "},"ћ":{"ha":1185,"x_min":0,"x_max":0,"o":"m 28 972 l 28 778 l 257 778 l 257 0 l 451 0 l 451 372 l 936 372 l 936 0 l 1129 0 l 1129 469 l 1033 567 l 451 567 l 451 778 l 813 778 l 813 972 z "},"ђ":{"ha":1185,"x_min":0,"x_max":0,"o":"m 28 972 l 28 778 l 257 778 l 257 0 l 451 0 l 451 372 l 936 372 l 936 194 l 799 194 l 799 0 l 1035 0 l 1129 97 l 1129 469 l 1033 567 l 451 567 l 451 778 l 813 778 l 813 972 z "},"Џ":{"ha":1011,"x_min":0,"x_max":0,"o":"m 603 -194 l 603 0 l 942 0 l 942 972 l 749 972 l 749 194 l 264 194 l 264 972 l 69 972 l 69 0 l 408 0 l 408 -194 z "},"џ":{"ha":1011,"x_min":0,"x_max":0,"o":"m 603 -194 l 603 0 l 942 0 l 942 972 l 749 972 l 749 194 l 264 194 l 264 972 l 69 972 l 69 0 l 408 0 l 408 -194 z "},"ґ":{"ha":922,"x_min":0,"x_max":0,"o":"m 894 778 l 894 1069 l 700 1069 l 700 972 l 69 972 l 69 0 l 264 0 l 264 778 z "},"Ў":{"ha":956,"x_min":0,"x_max":0,"o":"m 124 0 l 610 0 l 900 290 l 900 972 l 707 972 l 707 582 l 415 582 l 222 776 l 222 972 l 28 972 l 28 679 l 318 388 l 707 388 l 513 194 l 124 194 z m 124 1165 l 222 1068 l 707 1068 l 804 1165 l 804 1360 l 610 1360 l 610 1233 l 318 1233 l 318 1360 l 124 1360 z "},"ј":{"ha":956,"x_min":0,"x_max":0,"o":"m 513 194 l 415 194 l 222 388 l 222 485 l 28 485 l 28 290 l 318 0 l 610 0 l 900 290 l 900 972 l 415 972 l 415 778 l 707 778 l 707 388 z "},"Ѕ":{"ha":1011,"x_min":0,"x_max":0,"o":"m 846 0 l 942 96 l 942 486 l 846 583 l 264 583 l 264 778 l 749 778 l 749 681 l 942 681 l 942 874 l 846 972 l 165 972 l 69 874 l 69 457 l 165 388 l 749 388 l 749 194 l 264 194 l 264 290 l 69 290 l 69 96 l 165 0 z "},"ѕ":{"ha":1011,"x_min":0,"x_max":0,"o":"m 846 0 l 942 96 l 942 486 l 846 583 l 264 583 l 264 778 l 749 778 l 749 681 l 942 681 l 942 874 l 846 972 l 165 972 l 69 874 l 69 457 l 165 388 l 749 388 l 749 194 l 264 194 l 264 290 l 69 290 l 69 96 l 165 0 z "},"ї":{"ha":394,"x_min":0,"x_max":0,"o":"m 294 0 l 294 972 l 100 972 l 100 0 z m -69 1069 l 125 1069 l 125 1264 l -69 1264 z m 269 1069 l 464 1069 l 464 1264 l 269 1264 z "},"Ї":{"ha":394,"x_min":0,"x_max":0,"o":"m 294 0 l 294 972 l 100 972 l 100 0 z m -69 1069 l 125 1069 l 125 1264 l -69 1264 z m 269 1069 l 464 1069 l 464 1264 l 269 1264 z "},"І":{"ha":333,"x_min":0,"x_max":0,"o":"m 264 0 l 264 972 l 69 972 l 69 0 z "},"і":{"ha":333,"x_min":0,"x_max":0,"o":"m 264 0 l 264 972 l 69 972 l 69 0 z "},"Є":{"ha":997,"x_min":0,"x_max":0,"o":"m 846 0 l 942 96 l 942 290 l 747 290 l 747 194 l 263 194 l 263 388 l 651 388 l 651 582 l 263 582 l 263 778 l 747 778 l 747 681 l 942 681 l 942 874 l 846 972 l 165 972 l 69 874 l 69 96 l 165 0 z "},"Ј":{"ha":956,"x_min":0,"x_max":0,"o":"m 513 194 l 415 194 l 222 388 l 222 485 l 28 485 l 28 290 l 318 0 l 610 0 l 900 290 l 900 972 l 415 972 l 415 778 l 707 778 l 707 388 z "},"¤":{"ha":1082,"x_min":0,"x_max":0,"o":"m 346 582 l 346 778 l 832 778 l 832 582 z m 151 0 l 346 0 l 346 158 l 832 158 l 832 340 l 346 340 l 346 388 l 928 388 l 1026 485 l 1026 874 l 928 972 l 151 972 l 151 582 l 56 582 l 56 388 l 151 388 l 151 340 l 56 340 l 56 158 l 151 158 z "},"‰":{"ha":1513,"x_min":0,"x_max":0,"o":"m 275 0 l 1013 972 l 785 972 l 42 0 z m 626 0 l 1014 0 l 1014 386 l 626 386 z m 772 242 l 869 242 l 869 146 l 772 146 z m 42 583 l 428 583 l 428 971 l 42 971 z m 188 826 l 283 826 l 283 729 l 188 729 z m 1083 0 l 1471 0 l 1471 386 l 1083 386 z m 1229 242 l 1326 242 l 1326 146 l 1229 146 z "},"Љ":{"ha":1522,"x_min":0,"x_max":0,"o":"m 1371 0 l 1467 96 l 1467 582 l 1371 679 l 858 679 l 858 972 l 346 972 l 56 681 l 56 0 l 250 0 l 250 583 l 443 778 l 665 778 l 665 0 z m 858 194 l 858 485 l 1274 485 l 1274 194 z "},"Њ":{"ha":1536,"x_min":0,"x_max":0,"o":"m 264 0 l 264 431 l 679 431 l 679 0 l 1385 0 l 1481 96 l 1481 528 l 1385 625 l 872 625 l 872 972 l 679 972 l 679 625 l 264 625 l 264 972 l 69 972 l 69 0 z m 872 194 l 872 431 l 1288 431 l 1288 194 z "},"њ":{"ha":1536,"x_min":0,"x_max":0,"o":"m 264 0 l 264 431 l 679 431 l 679 0 l 1385 0 l 1481 96 l 1481 528 l 1385 625 l 872 625 l 872 972 l 679 972 l 679 625 l 264 625 l 264 972 l 69 972 l 69 0 z m 872 194 l 872 431 l 1288 431 l 1288 194 z "},"љ":{"ha":1522,"x_min":0,"x_max":0,"o":"m 1371 0 l 1467 96 l 1467 582 l 1371 679 l 858 679 l 858 972 l 346 972 l 56 681 l 56 0 l 250 0 l 250 583 l 443 778 l 665 778 l 665 0 z m 858 194 l 858 485 l 1274 485 l 1274 194 z "},"Ќ":{"ha":997,"x_min":0,"x_max":0,"o":"m 264 0 l 264 388 l 554 388 l 749 194 l 749 0 l 942 0 l 942 290 l 749 485 l 942 679 l 942 972 l 749 972 l 749 776 l 554 582 l 264 582 l 264 972 l 69 972 l 69 0 z m 583 1278 l 375 1014 l 569 1014 l 792 1278 z "},"ќ":{"ha":997,"x_min":0,"x_max":0,"o":"m 264 0 l 264 388 l 554 388 l 749 194 l 749 0 l 942 0 l 942 290 l 749 485 l 942 679 l 942 972 l 749 972 l 749 776 l 554 582 l 264 582 l 264 972 l 69 972 l 69 0 z m 583 1278 l 375 1014 l 569 1014 l 792 1278 z "},"ѓ":{"ha":922,"x_min":0,"x_max":0,"o":"m 264 0 l 264 778 l 894 778 l 894 972 l 69 972 l 69 0 z m 583 1306 l 375 1042 l 569 1042 l 792 1306 z "},"†":{"ha":750,"x_min":0,"x_max":0,"o":"m 278 778 l 28 778 l 28 583 l 278 583 l 278 -97 l 472 -97 l 472 583 l 722 583 l 722 778 l 472 778 l 472 1069 l 278 1069 z "},"‡":{"ha":750,"x_min":0,"x_max":0,"o":"m 278 833 l 28 833 l 28 639 l 278 639 l 278 333 l 28 333 l 28 139 l 278 139 l 278 -97 l 472 -97 l 472 139 l 722 139 l 722 333 l 472 333 l 472 639 l 722 639 l 722 833 l 472 833 l 472 1069 l 278 1069 z "},"‚":{"ha":306,"x_min":0,"x_max":0,"o":"m 56 -194 l 250 0 l 250 194 l 56 194 z "},"­":{"ha":443,"x_min":0,"x_max":0,"o":"m 28 388 l 415 388 l 415 582 l 28 582 z "},"·":{"ha":556,"x_min":0,"x_max":0,"o":"m 181 389 l 375 389 l 375 583 l 181 583 z "},"¬":{"ha":846,"x_min":0,"x_max":0,"o":"m 28 486 l 611 486 l 611 299 l 804 299 l 804 681 l 28 681 z "},"¦":{"ha":333,"x_min":0,"x_max":0,"o":"m 69 583 l 264 583 l 264 1069 l 69 1069 z m 69 -97 l 264 -97 l 264 389 l 69 389 z "},"°":{"ha":518,"x_min":0,"x_max":0,"o":"m 42 488 l 476 488 l 476 972 l 42 972 z m 185 826 l 333 826 l 333 635 l 185 635 z "},"•":{"ha":574,"x_min":0,"x_max":0,"o":"m 69 243 l 504 243 l 504 728 l 69 728 z "},"±":{"ha":3446,"x_min":0,"x_max":0,"o":"m 1969 228 b 1726 469 1969 363 1863 469 b 1485 228 1592 469 1485 363 b 1726 -14 1485 93 1592 -14 b 1969 228 1863 -14 1969 93 z m 525 0 l 69 456 l 69 0 z m 2914 0 l 2688 456 l 2460 0 z m 3171 228 b 2929 469 3171 363 3064 469 l 2929 -14 b 3171 228 3064 -14 3171 93 z m 2446 456 l 2040 456 l 2446 36 z m 2004 0 l 2410 0 l 2004 419 z m 994 456 l 994 0 l 1222 0 z m 1450 456 l 1222 0 l 1450 0 z m 525 0 l 981 0 l 525 228 z m 525 456 l 525 228 l 981 456 z m 732 506 l 732 960 l 276 506 z m 1250 732 b 1008 974 1250 868 1144 974 b 767 732 874 974 767 868 b 1008 490 767 597 874 490 b 1250 732 1144 490 1250 597 z m 1208 960 l 1436 506 l 1663 960 z m 1954 506 l 1726 960 l 1500 506 z m 2410 960 l 2004 960 l 2410 540 z m 1969 506 l 2374 506 l 1969 925 z m 2907 960 l 2503 960 l 2907 540 z m 2467 506 l 2872 506 l 2467 925 z m 2922 960 l 3149 506 l 3376 960 z "},"µ":{"ha":3446,"x_min":0,"x_max":0,"o":"m 1969 228 b 1726 469 1969 363 1863 469 b 1485 228 1592 469 1485 363 b 1726 -14 1485 93 1592 -14 b 1969 228 1863 -14 1969 93 z m 525 0 l 69 456 l 69 0 z m 2914 0 l 2688 456 l 2460 0 z m 3171 228 b 2929 469 3171 363 3064 469 l 2929 -14 b 3171 228 3064 -14 3171 93 z m 2446 456 l 2040 456 l 2446 36 z m 2004 0 l 2410 0 l 2004 419 z m 994 456 l 994 0 l 1222 0 z m 1450 456 l 1222 0 l 1450 0 z m 525 0 l 981 0 l 525 228 z m 525 456 l 525 228 l 981 456 z m 732 506 l 732 960 l 276 506 z m 1250 732 b 1008 974 1250 868 1144 974 b 767 732 874 974 767 868 b 1008 490 767 597 874 490 b 1250 732 1144 490 1250 597 z m 1208 960 l 1436 506 l 1663 960 z m 1954 506 l 1726 960 l 1500 506 z m 2410 960 l 2004 960 l 2410 540 z m 1969 506 l 2374 506 l 1969 925 z m 2907 960 l 2503 960 l 2907 540 z m 2467 506 l 2872 506 l 2467 925 z m 2922 960 l 3149 506 l 3376 960 z "},"μ":{"ha":3446,"x_min":0,"x_max":0,"o":"m 1969 228 b 1726 469 1969 363 1863 469 b 1485 228 1592 469 1485 363 b 1726 -14 1485 93 1592 -14 b 1969 228 1863 -14 1969 93 z m 525 0 l 69 456 l 69 0 z m 2914 0 l 2688 456 l 2460 0 z m 3171 228 b 2929 469 3171 363 3064 469 l 2929 -14 b 3171 228 3064 -14 3171 93 z m 2446 456 l 2040 456 l 2446 36 z m 2004 0 l 2410 0 l 2004 419 z m 994 456 l 994 0 l 1222 0 z m 1450 456 l 1222 0 l 1450 0 z m 525 0 l 981 0 l 525 228 z m 525 456 l 525 228 l 981 456 z m 732 506 l 732 960 l 276 506 z m 1250 732 b 1008 974 1250 868 1144 974 b 767 732 874 974 767 868 b 1008 490 767 597 874 490 b 1250 732 1144 490 1250 597 z m 1208 960 l 1436 506 l 1663 960 z m 1954 506 l 1726 960 l 1500 506 z m 2410 960 l 2004 960 l 2410 540 z m 1969 506 l 2374 506 l 1969 925 z m 2907 960 l 2503 960 l 2907 540 z m 2467 506 l 2872 506 l 2467 925 z m 2922 960 l 3149 506 l 3376 960 z "}," ":{"ha":3446,"x_min":0,"x_max":0,"o":"m 1969 228 b 1726 469 1969 363 1863 469 b 1485 228 1592 469 1485 363 b 1726 -14 1485 93 1592 -14 b 1969 228 1863 -14 1969 93 z m 525 0 l 69 456 l 69 0 z m 2914 0 l 2688 456 l 2460 0 z m 3171 228 b 2929 469 3171 363 3064 469 l 2929 -14 b 3171 228 3064 -14 3171 93 z m 2446 456 l 2040 456 l 2446 36 z m 2004 0 l 2410 0 l 2004 419 z m 994 456 l 994 0 l 1222 0 z m 1450 456 l 1222 0 l 1450 0 z m 525 0 l 981 0 l 525 228 z m 525 456 l 525 228 l 981 456 z m 732 506 l 732 960 l 276 506 z m 1250 732 b 1008 974 1250 868 1144 974 b 767 732 874 974 767 868 b 1008 490 767 597 874 490 b 1250 732 1144 490 1250 597 z m 1208 960 l 1436 506 l 1663 960 z m 1954 506 l 1726 960 l 1500 506 z m 2410 960 l 2004 960 l 2410 540 z m 1969 506 l 2374 506 l 1969 925 z m 2907 960 l 2503 960 l 2907 540 z m 2467 506 l 2872 506 l 2467 925 z m 2922 960 l 3149 506 l 3376 960 z "},"а":{"ha":997,"x_min":0,"x_max":0,"o":"m 250 485 l 250 582 l 443 778 l 735 778 l 735 485 z m 250 0 l 250 290 l 735 290 l 735 0 l 928 0 l 928 972 l 346 972 l 56 679 l 56 0 z "},"б":{"ha":997,"x_min":0,"x_max":0,"o":"m 264 194 l 264 388 l 749 388 l 749 194 z m 846 0 l 942 96 l 942 485 l 846 582 l 264 582 l 264 778 l 894 778 l 894 972 l 69 972 l 69 0 z "},"в":{"ha":1011,"x_min":0,"x_max":0,"o":"m 264 194 l 264 388 l 749 388 l 749 194 z m 264 582 l 264 778 l 749 778 l 749 582 z m 846 0 l 942 96 l 942 388 l 846 485 l 942 582 l 942 874 l 846 972 l 69 972 l 69 0 z "},"г":{"ha":922,"x_min":0,"x_max":0,"o":"m 264 0 l 264 778 l 894 778 l 894 972 l 69 972 l 69 0 z "},"д":{"ha":1013,"x_min":0,"x_max":0,"o":"m 304 194 l 304 583 l 499 778 l 693 778 l 693 194 z m 208 -194 l 208 0 l 790 0 l 790 -194 l 985 -194 l 985 194 l 886 194 l 886 972 l 401 972 l 110 681 l 110 194 l 14 194 l 14 -194 z "},"е":{"ha":950,"x_min":0,"x_max":0,"o":"m 894 0 l 894 194 l 264 194 l 264 388 l 846 388 l 846 582 l 264 582 l 264 778 l 894 778 l 894 972 l 69 972 l 69 0 z "},"ж":{"ha":1275,"x_min":0,"x_max":0,"o":"m 250 0 l 250 194 l 443 388 l 540 388 l 540 0 l 735 0 l 735 388 l 832 388 l 1026 194 l 1026 0 l 1219 0 l 1219 290 l 1026 485 l 1219 679 l 1219 972 l 1026 972 l 1026 776 l 832 582 l 735 582 l 735 972 l 540 972 l 540 582 l 443 582 l 250 776 l 250 972 l 56 972 l 56 679 l 250 485 l 56 290 l 56 0 z "},"з":{"ha":983,"x_min":0,"x_max":0,"o":"m 818 0 l 914 96 l 914 388 l 818 485 l 914 582 l 914 874 l 818 972 l 138 972 l 42 874 l 42 681 l 236 681 l 236 778 l 721 778 l 721 582 l 429 582 l 429 388 l 721 388 l 721 194 l 236 194 l 236 290 l 42 290 l 42 96 l 138 0 z "},"и":{"ha":1011,"x_min":0,"x_max":0,"o":"m 264 0 l 749 649 l 749 0 l 942 0 l 942 972 l 749 972 l 264 325 l 264 972 l 69 972 l 69 0 z "},"й":{"ha":1011,"x_min":0,"x_max":0,"o":"m 165 1165 l 264 1068 l 749 1068 l 846 1165 l 846 1360 l 651 1360 l 651 1233 l 360 1233 l 360 1360 l 165 1360 z m 264 0 l 749 649 l 749 0 l 942 0 l 942 972 l 749 972 l 264 325 l 264 972 l 69 972 l 69 0 z "},"к":{"ha":997,"x_min":0,"x_max":0,"o":"m 264 0 l 264 388 l 554 388 l 749 194 l 749 0 l 942 0 l 942 290 l 749 485 l 942 679 l 942 972 l 749 972 l 749 776 l 554 582 l 264 582 l 264 972 l 69 972 l 69 0 z "},"л":{"ha":997,"x_min":0,"x_max":0,"o":"m 250 0 l 250 583 l 443 778 l 735 778 l 735 0 l 928 0 l 928 972 l 346 972 l 56 681 l 56 0 z "},"м":{"ha":1204,"x_min":0,"x_max":0,"o":"m 264 0 l 264 656 l 524 282 l 686 282 l 940 656 l 940 0 l 1135 0 l 1135 972 l 947 972 l 603 501 l 264 972 l 69 972 l 69 0 z "},"н":{"ha":1011,"x_min":0,"x_max":0,"o":"m 264 0 l 264 388 l 749 388 l 749 0 l 942 0 l 942 972 l 749 972 l 749 582 l 264 582 l 264 972 l 69 972 l 69 0 z "},"о":{"ha":1011,"x_min":0,"x_max":0,"o":"m 264 194 l 264 778 l 749 778 l 749 194 z m 846 0 l 942 96 l 942 874 l 846 972 l 165 972 l 69 874 l 69 96 l 165 0 z "},"п":{"ha":1011,"x_min":0,"x_max":0,"o":"m 264 0 l 264 778 l 749 778 l 749 0 l 942 0 l 942 972 l 69 972 l 69 0 z "},"р":{"ha":997,"x_min":0,"x_max":0,"o":"m 264 485 l 264 778 l 749 778 l 749 485 z m 264 0 l 264 290 l 846 290 l 942 388 l 942 874 l 846 972 l 69 972 l 69 0 z "},"с":{"ha":997,"x_min":0,"x_max":0,"o":"m 846 0 l 942 96 l 942 290 l 749 290 l 749 194 l 264 194 l 264 778 l 749 778 l 749 681 l 942 681 l 942 874 l 846 972 l 165 972 l 69 874 l 69 96 l 165 0 z "},"т":{"ha":928,"x_min":0,"x_max":0,"o":"m 563 0 l 563 778 l 900 778 l 900 972 l 28 972 l 28 778 l 368 778 l 368 0 z "},"у":{"ha":956,"x_min":0,"x_max":0,"o":"m 124 0 l 610 0 l 900 290 l 900 972 l 707 972 l 707 582 l 415 582 l 222 776 l 222 972 l 28 972 l 28 679 l 318 388 l 707 388 l 513 194 l 124 194 z "},"ф":{"ha":1275,"x_min":0,"x_max":0,"o":"m 151 972 l 56 874 l 56 240 l 151 144 l 540 144 l 540 0 l 735 0 l 735 144 l 1122 144 l 1219 240 l 1219 874 l 1122 972 l 735 972 l 735 1118 l 540 1118 l 540 972 z m 250 339 l 250 778 l 540 778 l 540 339 z m 735 339 l 735 778 l 1026 778 l 1026 339 z "},"х":{"ha":983,"x_min":0,"x_max":0,"o":"m 250 0 l 250 194 l 443 388 l 540 388 l 735 194 l 735 0 l 928 0 l 928 290 l 735 485 l 928 679 l 928 972 l 735 972 l 735 776 l 540 582 l 443 582 l 250 776 l 250 972 l 56 972 l 56 679 l 250 485 l 56 290 l 56 0 z "},"ц":{"ha":1082,"x_min":0,"x_max":0,"o":"m 1040 -194 l 1040 194 l 942 194 l 942 972 l 749 972 l 749 194 l 264 194 l 264 972 l 69 972 l 69 0 l 846 0 l 846 -194 z "},"ч":{"ha":951,"x_min":0,"x_max":0,"o":"m 882 0 l 882 972 l 688 972 l 688 582 l 250 582 l 250 972 l 56 972 l 56 485 l 151 388 l 688 388 l 688 0 z "},"ш":{"ha":1303,"x_min":0,"x_max":0,"o":"m 1233 0 l 1233 972 l 1040 972 l 1040 194 l 749 194 l 749 972 l 554 972 l 554 194 l 264 194 l 264 972 l 69 972 l 69 0 z "},"щ":{"ha":1372,"x_min":0,"x_max":0,"o":"m 1331 -194 l 1331 194 l 1233 194 l 1233 972 l 1040 972 l 1040 194 l 749 194 l 749 972 l 554 972 l 554 194 l 264 194 l 264 972 l 69 972 l 69 0 l 1136 0 l 1136 -194 z "},"ъ":{"ha":1150,"x_min":0,"x_max":0,"o":"m 415 194 l 415 485 l 900 485 l 900 194 z m 999 0 l 1094 96 l 1094 582 l 999 679 l 415 679 l 415 972 l 28 972 l 28 778 l 222 778 l 222 0 z "},"ы":{"ha":1303,"x_min":0,"x_max":0,"o":"m 264 194 l 264 485 l 749 485 l 749 194 z m 846 0 l 942 96 l 942 582 l 846 679 l 264 679 l 264 972 l 69 972 l 69 0 z m 1233 0 l 1233 972 l 1040 972 l 1040 0 z "},"ь":{"ha":997,"x_min":0,"x_max":0,"o":"m 264 194 l 264 485 l 749 485 l 749 194 z m 846 0 l 942 96 l 942 582 l 846 679 l 264 679 l 264 972 l 69 972 l 69 0 z "},"э":{"ha":997,"x_min":0,"x_max":0,"o":"m 832 0 l 928 96 l 928 874 l 832 972 l 151 972 l 56 874 l 56 681 l 250 681 l 250 778 l 735 778 l 735 582 l 346 582 l 346 388 l 735 388 l 735 194 l 250 194 l 250 290 l 56 290 l 56 96 l 151 0 z "},"ю":{"ha":1303,"x_min":0,"x_max":0,"o":"m 651 194 l 651 778 l 1040 778 l 1040 194 z m 264 0 l 264 388 l 457 388 l 457 96 l 554 0 l 1136 0 l 1233 96 l 1233 874 l 1136 972 l 554 972 l 457 874 l 457 582 l 264 582 l 264 972 l 69 972 l 69 0 z "},"я":{"ha":1011,"x_min":0,"x_max":0,"o":"m 264 485 l 264 778 l 749 778 l 749 485 z m 264 0 l 264 96 l 457 290 l 749 290 l 749 0 l 942 0 l 942 972 l 165 972 l 69 874 l 69 388 l 165 290 l 69 194 l 69 0 z "},"a":{"ha":997,"x_min":0,"x_max":0,"o":"m 250 485 l 250 582 l 443 778 l 735 778 l 735 485 z m 250 0 l 250 290 l 735 290 l 735 0 l 928 0 l 928 972 l 346 972 l 56 679 l 56 0 z "},"b":{"ha":1011,"x_min":0,"x_max":0,"o":"m 264 194 l 264 388 l 749 388 l 749 194 z m 264 582 l 264 778 l 749 778 l 749 582 z m 846 0 l 942 96 l 942 388 l 846 485 l 942 582 l 942 874 l 846 972 l 69 972 l 69 0 z "},"c":{"ha":997,"x_min":0,"x_max":0,"o":"m 846 0 l 942 96 l 942 290 l 749 290 l 749 194 l 264 194 l 264 778 l 749 778 l 749 681 l 942 681 l 942 874 l 846 972 l 165 972 l 69 874 l 69 96 l 165 0 z "},"d":{"ha":997,"x_min":0,"x_max":0,"o":"m 942 681 l 651 972 l 69 972 l 69 0 l 846 0 l 942 96 z m 749 194 l 264 194 l 264 778 l 554 778 l 749 583 z "},"e":{"ha":950,"x_min":0,"x_max":0,"o":"m 894 0 l 894 194 l 264 194 l 264 388 l 846 388 l 846 582 l 264 582 l 264 778 l 894 778 l 894 972 l 69 972 l 69 0 z "},"f":{"ha":922,"x_min":0,"x_max":0,"o":"m 264 0 l 264 388 l 846 388 l 846 582 l 264 582 l 264 778 l 894 778 l 894 972 l 69 972 l 69 0 z "},"g":{"ha":1011,"x_min":0,"x_max":0,"o":"m 846 0 l 942 96 l 942 557 l 504 557 l 504 363 l 749 363 l 749 194 l 264 194 l 264 778 l 749 778 l 749 681 l 942 681 l 942 874 l 846 972 l 165 972 l 69 874 l 69 96 l 165 0 z "},"h":{"ha":1011,"x_min":0,"x_max":0,"o":"m 264 0 l 264 388 l 749 388 l 749 0 l 942 0 l 942 972 l 749 972 l 749 582 l 264 582 l 264 972 l 69 972 l 69 0 z "},"i":{"ha":333,"x_min":0,"x_max":0,"o":"m 264 0 l 264 972 l 69 972 l 69 0 z "},"j":{"ha":969,"x_min":0,"x_max":0,"o":"m 513 194 l 415 194 l 222 388 l 222 485 l 28 485 l 28 290 l 318 0 l 610 0 l 900 290 l 900 972 l 415 972 l 415 778 l 707 778 l 707 388 z "},"k":{"ha":997,"x_min":0,"x_max":0,"o":"m 264 0 l 264 388 l 554 388 l 749 194 l 749 0 l 942 0 l 942 290 l 749 485 l 942 679 l 942 972 l 749 972 l 749 776 l 554 582 l 264 582 l 264 972 l 69 972 l 69 0 z "},"l":{"ha":922,"x_min":0,"x_max":0,"o":"m 69 972 l 69 0 l 894 0 l 894 194 l 264 194 l 264 972 z "},"m":{"ha":1204,"x_min":0,"x_max":0,"o":"m 264 0 l 264 656 l 524 282 l 686 282 l 940 656 l 940 0 l 1135 0 l 1135 972 l 947 972 l 603 501 l 264 972 l 69 972 l 69 0 z "},"n":{"ha":1011,"x_min":0,"x_max":0,"o":"m 942 0 l 942 972 l 749 972 l 749 325 l 264 972 l 69 972 l 69 0 l 264 0 l 264 649 l 749 0 z "},"o":{"ha":1011,"x_min":0,"x_max":0,"o":"m 264 194 l 264 778 l 749 778 l 749 194 z m 846 0 l 942 96 l 942 874 l 846 972 l 165 972 l 69 874 l 69 96 l 165 0 z "},"p":{"ha":997,"x_min":0,"x_max":0,"o":"m 264 485 l 264 778 l 749 778 l 749 485 z m 264 0 l 264 290 l 846 290 l 942 388 l 942 874 l 846 972 l 69 972 l 69 0 z "},"q":{"ha":1025,"x_min":0,"x_max":0,"o":"m 815 197 l 942 290 l 942 874 l 846 972 l 165 972 l 69 874 l 69 96 l 165 0 l 554 0 l 674 90 l 749 0 l 983 0 z m 540 247 l 457 194 l 264 194 l 264 778 l 749 778 l 749 388 l 686 347 l 651 388 l 421 388 z "},"r":{"ha":1011,"x_min":0,"x_max":0,"o":"m 264 485 l 264 778 l 749 778 l 749 485 z m 942 0 l 942 194 l 846 290 l 942 388 l 942 874 l 846 972 l 69 972 l 69 0 l 264 0 l 264 290 l 554 290 l 651 194 l 749 96 l 749 0 z "},"s":{"ha":1011,"x_min":0,"x_max":0,"o":"m 846 0 l 942 96 l 942 486 l 846 583 l 264 583 l 264 778 l 749 778 l 749 681 l 942 681 l 942 874 l 846 972 l 165 972 l 69 874 l 69 457 l 165 388 l 749 388 l 749 194 l 264 194 l 264 290 l 69 290 l 69 96 l 165 0 z "},"t":{"ha":928,"x_min":0,"x_max":0,"o":"m 563 0 l 563 778 l 900 778 l 900 972 l 28 972 l 28 778 l 368 778 l 368 0 z "},"u":{"ha":1011,"x_min":0,"x_max":0,"o":"m 69 972 l 69 96 l 165 0 l 846 0 l 942 96 l 942 972 l 749 972 l 749 194 l 264 194 l 264 972 z "},"v":{"ha":983,"x_min":0,"x_max":0,"o":"m 540 194 l 443 194 l 250 388 l 250 972 l 56 972 l 56 290 l 346 0 l 638 0 l 928 290 l 928 972 l 735 972 l 735 388 z "},"w":{"ha":1275,"x_min":0,"x_max":0,"o":"m 785 0 l 979 0 l 1219 290 l 1219 972 l 1026 972 l 1026 388 l 882 194 l 735 388 l 735 972 l 540 972 l 540 388 l 397 194 l 250 388 l 250 972 l 56 972 l 56 290 l 299 0 l 493 0 l 638 174 z "},"x":{"ha":983,"x_min":0,"x_max":0,"o":"m 250 0 l 250 194 l 443 388 l 540 388 l 735 194 l 735 0 l 928 0 l 928 290 l 735 485 l 928 679 l 928 972 l 735 972 l 735 776 l 540 582 l 443 582 l 250 776 l 250 972 l 56 972 l 56 679 l 250 485 l 56 290 l 56 0 z "},"y":{"ha":956,"x_min":0,"x_max":0,"o":"m 575 0 l 575 367 l 914 610 l 914 972 l 721 972 l 721 692 l 476 528 l 236 692 l 236 972 l 42 972 l 42 610 l 382 367 l 382 0 z "},"z":{"ha":956,"x_min":0,"x_max":0,"o":"m 914 972 l 42 972 l 42 778 l 624 778 l 42 194 l 42 0 l 914 0 l 914 194 l 332 194 l 914 778 z "},"ў":{"ha":956,"x_min":0,"x_max":0,"o":"m 124 0 l 610 0 l 900 290 l 900 972 l 707 972 l 707 582 l 415 582 l 222 776 l 222 972 l 28 972 l 28 679 l 318 388 l 707 388 l 513 194 l 124 194 z m 124 1165 l 222 1068 l 707 1068 l 804 1165 l 804 1360 l 610 1360 l 610 1233 l 318 1233 l 318 1360 l 124 1360 z "},"Ђ":{"ha":1185,"x_min":0,"x_max":0,"o":"m 28 972 l 28 778 l 257 778 l 257 0 l 451 0 l 451 372 l 936 372 l 936 194 l 799 194 l 799 0 l 1035 0 l 1129 97 l 1129 469 l 1033 567 l 451 567 l 451 778 l 813 778 l 813 972 z "},"Ћ":{"ha":1185,"x_min":0,"x_max":0,"o":"m 28 972 l 28 778 l 257 778 l 257 0 l 451 0 l 451 372 l 936 372 l 936 0 l 1129 0 l 1129 469 l 1033 567 l 451 567 l 451 778 l 813 778 l 813 972 z "},"Ѓ":{"ha":922,"x_min":0,"x_max":0,"o":"m 264 0 l 264 778 l 894 778 l 894 972 l 69 972 l 69 0 z m 583 1306 l 375 1042 l 569 1042 l 792 1306 z "},"Ґ":{"ha":922,"x_min":0,"x_max":0,"o":"m 894 778 l 894 1069 l 700 1069 l 700 972 l 69 972 l 69 0 l 264 0 l 264 778 z "},"Ғ":{"ha":967,"x_min":0,"x_max":0,"o":"m 300 0 l 300 388 l 693 388 l 693 582 l 300 582 l 300 778 l 939 778 l 939 972 l 106 972 l 106 582 l 14 582 l 14 388 l 106 388 l 106 0 z "}}}
